<svg xmlns="http://www.w3.org/2000/svg" viewBox="0 0 124 118" role="img" aria-label="cPerch">
  <title>cPerch</title>
  <desc>A songbird perched on a terminal prompt.</desc>
  <mask id="cuts" maskUnits="userSpaceOnUse" x="0" y="0" width="124" height="118">
    <rect x="0" y="0" width="124" height="118" fill="#fff"/>
    <circle cx="99" cy="29" r="2.7" fill="#000"/>
    <path d="M96,46 C84,48 68,50 54,55 C48,58 44,60 40,63" fill="none" stroke="#000" stroke-width="2.6" stroke-linecap="round"/>
  </mask>
  <g fill="#141413" mask="url(#cuts)">
    <path d="M118,34 C112,26 106,20 98,18 C90,16 82,18 76,24 C66,32 56,36 48,40 C44,42 40,44 36,47 C28,55 16,66 6,80 C16,72 28,66 40,62 C52,66 60,70 70,69 C84,68 94,60 100,50 C104,44 108,40 118,34 Z"/>
    <line x1="62" y1="66" x2="62" y2="86" stroke="#141413" stroke-width="3.2" stroke-linecap="round"/>
    <line x1="72" y1="66" x2="72" y2="86" stroke="#141413" stroke-width="3.2" stroke-linecap="round"/>
  </g>
  <g fill="none" stroke="#141413" stroke-width="5" stroke-linecap="round" stroke-linejoin="round">
    <line x1="28" y1="86" x2="104" y2="86"/>
    <polyline points="46,93 57,101 46,109"/>
    <line x1="66" y1="109" x2="82" y2="109"/>
  </g>
</svg>
