<svg xmlns="http://www.w3.org/2000/svg" viewBox="0 0 124 118" role="img" aria-label="cPerch">
  <title>cPerch glyph (template)</title>
  <desc>Simplified single-color cPerch glyph for small-size / template use; eye and wing detail dropped so it stays legible when tiny.</desc>
  <g fill="#000000">
    <path d="M118,34 C112,26 106,20 98,18 C90,16 82,18 76,24 C66,32 56,36 48,40 C44,42 40,44 36,47 C28,55 16,66 6,80 C16,72 28,66 40,62 C52,66 60,70 70,69 C84,68 94,60 100,50 C104,44 108,40 118,34 Z"/>
    <line x1="62" y1="66" x2="62" y2="86" stroke="#000000" stroke-width="3.4" stroke-linecap="round"/>
    <line x1="72" y1="66" x2="72" y2="86" stroke="#000000" stroke-width="3.4" stroke-linecap="round"/>
  </g>
  <g fill="none" stroke="#000000" stroke-width="5" stroke-linecap="round" stroke-linejoin="round">
    <line x1="28" y1="86" x2="104" y2="86"/>
    <polyline points="46,93 57,101 46,109"/>
    <line x1="66" y1="109" x2="82" y2="109"/>
  </g>
</svg>
