<svg xmlns="http://www.w3.org/2000/svg" viewBox="0 0 1200 630" role="img" aria-label="cPerch — a perch for your Claude sessions">
  <title>cPerch</title>
  <rect width="1200" height="630" fill="#faf9f5"/>
  <svg x="487" y="90" width="226" height="200" viewBox="6 14 112 99" overflow="visible">
    <path d="M118,34 C112,26 106,20 98,18 C90,16 82,18 76,24 C66,32 56,36 48,40 C44,42 40,44 36,47 C28,55 16,66 6,80 C16,72 28,66 40,62 C52,66 60,70 70,69 C84,68 94,60 100,50 C104,44 108,40 118,34 Z" fill="#141413"/>
    <line x1="62" y1="66" x2="62" y2="86" stroke="#141413" stroke-width="3.2" stroke-linecap="round"/>
    <line x1="72" y1="66" x2="72" y2="86" stroke="#141413" stroke-width="3.2" stroke-linecap="round"/>
    <circle cx="99" cy="29" r="2.7" fill="#faf9f5"/>
    <path d="M96,46 C84,48 68,50 54,55 C48,58 44,60 40,63" fill="none" stroke="#faf9f5" stroke-width="2.6" stroke-linecap="round"/>
    <g fill="none" stroke="#d97757" stroke-width="5" stroke-linecap="round" stroke-linejoin="round">
      <line x1="28" y1="86" x2="104" y2="86"/>
      <polyline points="46,93 57,101 46,109"/>
      <line x1="66" y1="109" x2="82" y2="109"/>
    </g>
  </svg>
  <text x="600" y="420" font-family="Avenir Next, Avenir, Helvetica Neue, Arial, sans-serif" font-size="112" font-weight="700" letter-spacing="-3" fill="#141413" text-anchor="middle">cPerch</text>
  <text x="600" y="478" font-family="Avenir Next, Avenir, Helvetica Neue, Arial, sans-serif" font-size="33" fill="#6b6862" text-anchor="middle">A perch for your Claude sessions</text>
  <circle cx="568" cy="533" r="9" fill="#d97757"/>
  <circle cx="600" cy="533" r="9" fill="#6a9bcc"/>
  <circle cx="632" cy="533" r="9" fill="#788c5d"/>
</svg>
